<svg width="42" height="42" viewBox="0 0 42 42" fill="none" xmlns="http://www.w3.org/2000/svg">
<g clip-path="url(#clip0_408_9951)">
<path d="M14.3007 8.55713H11.9971L8.55713 22.2485H10.3165L11.1106 19.0396H15.0742L15.8478 22.2485H17.6653L14.3007 8.55713ZM11.3416 17.6653L13.0821 10.183H13.1592L14.8432 17.667L11.3416 17.6653ZM19.233 22.2485V8.55713H20.9444V22.2485H19.233ZM19.553 23.96H6.8457V6.8457H23.96V15.0263C25.9853 13.7176 28.4357 13.2361 30.8057 13.6811V10.2686H27.3828V6.8457C27.3801 5.93874 27.0186 5.0697 26.3773 4.42837C25.736 3.78705 24.8669 3.42556 23.96 3.42285H20.5371V0H17.1143V3.42285H13.6914V0H10.2686V3.42285H6.8457C5.93874 3.42556 5.0697 3.78705 4.42837 4.42837C3.78705 5.0697 3.42556 5.93874 3.42285 6.8457V10.2686H0V13.6914H3.42285V17.1143H0V20.5371H3.42285V23.96C3.42556 24.8669 3.78705 25.736 4.42837 26.3773C5.0697 27.0186 5.93874 27.3801 6.8457 27.3828H10.2686V30.8057H13.6914V27.3828H17.1143V30.8057H20.5371V27.3965C19.9965 26.3228 19.6626 25.1571 19.553 23.96ZM23.1042 23.1042C23.1042 21.9195 23.4556 20.7614 24.1137 19.7764C24.7719 18.7913 25.7074 18.0236 26.802 17.5702C27.8965 17.1168 29.1009 16.9982 30.2628 17.2294C31.4248 17.4605 32.4921 18.031 33.3298 18.8687C34.1675 19.7064 34.738 20.7737 34.9691 21.9357C35.2003 23.0976 35.0816 24.302 34.6283 25.3965C34.1749 26.491 33.4071 27.4266 32.4221 28.0847C31.4371 28.7429 30.2789 29.0942 29.0942 29.0942C27.5056 29.0942 25.982 28.4632 24.8587 27.3398C23.7353 26.2165 23.1042 24.6929 23.1042 23.1042ZM29.0942 32.5171C25.0963 32.5171 17.1143 34.5246 17.1143 38.5071V41.0742H41.0742V38.5071C41.0742 34.5229 33.0921 32.5171 29.0942 32.5171Z" fill="#333333"/>
</g>
<defs>
<clipPath id="clip0_408_9951">
<rect width="41.0742" height="41.0742" fill="white"/>
</clipPath>
</defs>
</svg>
