<svg width="77" height="41" viewBox="0 0 77 41" fill="none" xmlns="http://www.w3.org/2000/svg">
<mask id="mask0_398_15945" style="mask-type:luminance" maskUnits="userSpaceOnUse" x="0" y="0" width="77" height="41">
<path d="M77 0H0V40.9258H77V0Z" fill="white"/>
</mask>
<g mask="url(#mask0_398_15945)">
<path d="M27.6917 16.1649H18.6049C17.9645 16.1649 17.4453 16.6843 17.4453 17.325V39.0938C17.4453 39.7345 17.9645 40.2538 18.6049 40.2538H27.6917C28.3321 40.2538 28.8513 39.7345 28.8513 39.0938V17.325C28.8513 16.6843 28.3321 16.1649 27.6917 16.1649Z" fill="#E0F0F5"/>
<path d="M43.3197 8.87476H34.0238C33.4411 8.87476 32.9688 9.34728 32.9688 9.93023V39.5152C32.9688 40.0981 33.4411 40.5707 34.0238 40.5707H43.3197C43.9024 40.5707 44.3747 40.0981 44.3747 39.5152V9.93023C44.3747 9.34728 43.9024 8.87476 43.3197 8.87476Z" fill="#E0F0F5"/>
<path d="M58.4073 0.317017H49.3585C48.7076 0.317017 48.1797 0.844913 48.1797 1.4961V39.0748C48.1797 39.726 48.7076 40.2539 49.3585 40.2539H58.4073C59.0582 40.2539 59.5856 39.726 59.5856 39.0748V1.4961C59.5856 0.844913 59.0582 0.317017 58.4073 0.317017Z" fill="#E0F0F5"/>
<path d="M59.7418 25.8353V39.1856C59.7423 39.3406 59.7121 39.4941 59.653 39.6374C59.5939 39.7806 59.5069 39.9108 59.3974 40.0204C59.2879 40.1299 59.1577 40.2168 59.0146 40.2758C58.8714 40.335 58.7182 40.3652 58.5631 40.3648H49.5176C49.3624 40.3651 49.2092 40.335 49.0656 40.2759C48.9224 40.2169 48.7918 40.1301 48.6823 40.0205C48.5723 39.911 48.4853 39.7809 48.4258 39.6376C48.3667 39.4944 48.3359 39.3408 48.3359 39.1856V26.8845C48.3359 26.3801 48.5362 25.8964 48.8927 25.5397C49.2491 25.1831 49.7328 24.9827 50.2367 24.9827C50.741 24.9827 51.2248 25.1831 51.5812 25.5397C51.9376 25.8964 52.1379 26.3801 52.1379 26.8845V29.5311C52.1379 30.0355 52.3382 30.5192 52.6946 30.8758C53.051 31.2325 53.5348 31.4329 54.0386 31.4329C54.543 31.4329 55.0267 31.2325 55.3831 30.8758C55.7396 30.5192 55.9399 30.0355 55.9399 29.5311V25.8353C55.9399 25.331 56.1402 24.8473 56.4966 24.4906C56.853 24.1339 57.3367 23.9336 57.8411 23.9336C58.345 23.9336 58.8287 24.1339 59.1851 24.4906C59.5415 24.8473 59.7418 25.331 59.7418 25.8353Z" fill="#BDDFE9"/>
<path d="M44.2029 20.3235V39.3791C44.2033 39.534 44.1731 39.6875 44.114 39.8308C44.0549 39.974 43.9681 40.1042 43.8586 40.2138C43.7491 40.3233 43.619 40.4102 43.4758 40.4693C43.3326 40.5284 43.1791 40.5586 43.0243 40.5582H33.9787C33.8236 40.5586 33.67 40.5284 33.5267 40.4694C33.3833 40.4103 33.253 40.3235 33.1432 40.214C33.0334 40.1044 32.9463 39.9743 32.8869 39.831C32.8275 39.6878 32.7969 39.5342 32.7969 39.3791V28.3457C32.7969 27.8414 32.9972 27.3576 33.3537 27.001C33.7102 26.6443 34.1937 26.444 34.6979 26.444C35.2021 26.444 35.6856 26.6443 36.0421 27.001C36.3986 27.3576 36.5989 27.8414 36.5989 28.3457V29.7245C36.5989 30.2289 36.7991 30.7126 37.1557 31.0693C37.5122 31.4259 37.9957 31.6263 38.4999 31.6263C39.004 31.6263 39.4876 31.4259 39.8441 31.0693C40.2006 30.7126 40.4009 30.2289 40.4009 29.7245V20.3235C40.4009 19.8191 40.6012 19.3354 40.9577 18.9788C41.3142 18.6221 41.7977 18.4218 42.3019 18.4218C42.8061 18.4218 43.2896 18.6221 43.6461 18.9788C44.0026 19.3354 44.2029 19.8191 44.2029 20.3235Z" fill="#BDDFE9"/>
<path d="M29.0095 26.1522V38.8686C29.0099 39.0236 28.9797 39.1771 28.9206 39.3203C28.8616 39.4636 28.7748 39.5937 28.6652 39.7033C28.5557 39.8128 28.4256 39.8997 28.2824 39.9588C28.1392 40.0179 27.9858 40.0481 27.8309 40.0477H18.7853C18.6303 40.0481 18.4766 40.018 18.3333 39.9589C18.1899 39.8998 18.0596 39.813 17.9498 39.7035C17.84 39.594 17.753 39.4638 17.6935 39.3206C17.6341 39.1773 17.6035 39.0237 17.6035 38.8686V27.8353C17.6035 27.3309 17.8038 26.8472 18.1603 26.4906C18.5168 26.1339 19.0003 25.9335 19.5045 25.9335C20.0087 25.9335 20.4922 26.1339 20.8487 26.4906C21.2052 26.8472 21.4055 27.3309 21.4055 27.8353V29.214C21.4055 29.7184 21.6058 30.2022 21.9623 30.5588C22.3188 30.9154 22.8023 31.1158 23.3065 31.1158C23.8107 31.1158 24.2942 30.9154 24.6507 30.5588C25.0072 30.2022 25.2075 29.7184 25.2075 29.214V26.1522C25.2075 25.6478 25.4078 25.1641 25.7643 24.8075C26.1208 24.4508 26.6044 24.2505 27.1085 24.2505C27.6127 24.2505 28.0962 24.4508 28.4527 24.8075C28.8092 25.1641 29.0095 25.6478 29.0095 26.1522Z" fill="#BDDFE9"/>
<path d="M62.0793 5.86684C62.382 5.86684 62.6274 5.62133 62.6274 5.31847C62.6274 5.01566 62.382 4.77014 62.0793 4.77014C61.7767 4.77014 61.5312 5.01566 61.5312 5.31847C61.5312 5.62133 61.7767 5.86684 62.0793 5.86684Z" fill="#EEF0F1"/>
<path d="M63.6843 9.25196C63.3831 9.24994 63.0915 9.14359 62.86 8.95092C62.6284 8.7583 62.4709 8.49137 62.4142 8.19553C62.357 7.89968 62.4046 7.59322 62.5482 7.32835C62.6914 7.06354 62.9224 6.85665 63.2015 6.74295C63.4801 6.62925 63.7899 6.61575 64.0777 6.70476C64.3654 6.79382 64.6132 6.97986 64.7794 7.23123C64.9452 7.48259 65.0191 7.78377 64.9879 8.08341C64.9572 8.3831 64.8232 8.66276 64.6094 8.87479C64.363 9.11828 64.0301 9.25393 63.6843 9.25196ZM63.6843 6.97304C63.4321 6.98735 63.1948 7.09759 63.0214 7.28118C62.848 7.46477 62.7514 7.70778 62.7514 7.96035C62.7514 8.21296 62.848 8.45597 63.0214 8.63956C63.1948 8.82315 63.4321 8.93339 63.6843 8.94771C63.8135 8.94896 63.9422 8.9246 64.0628 8.87599C64.1829 8.82743 64.2924 8.75557 64.3846 8.66459C64.4773 8.57361 64.5508 8.46524 64.6012 8.34578C64.6517 8.22627 64.6781 8.09802 64.6791 7.96827C64.6805 7.70711 64.5787 7.45584 64.3961 7.26937C64.2131 7.08289 63.9643 6.9764 63.703 6.97304H63.6843Z" fill="#EEF0F1"/>
<path d="M22.9913 36.4503C25.0035 36.4503 26.6348 34.8184 26.6348 32.8053C26.6348 30.7922 25.0035 29.1603 22.9913 29.1603C20.979 29.1603 19.3477 30.7922 19.3477 32.8053C19.3477 34.8184 20.979 36.4503 22.9913 36.4503Z" fill="#A3CAD3"/>
<path d="M23.3057 34.5486C25.318 34.5486 26.9492 32.9167 26.9492 30.9036C26.9492 28.8905 25.318 27.2585 23.3057 27.2585C21.2934 27.2585 19.6621 28.8905 19.6621 30.9036C19.6621 32.9167 21.2934 34.5486 23.3057 34.5486Z" fill="white"/>
<path d="M22.9897 35.1825C22.2064 35.1825 21.4407 34.9502 20.7894 34.5148C20.1382 34.0795 19.6305 33.4607 19.3308 32.7367C19.031 32.0128 18.9526 31.2162 19.1054 30.4476C19.2582 29.679 19.6354 28.9731 20.1893 28.419C20.7432 27.8649 21.4488 27.4875 22.2171 27.3347C22.9853 27.1818 23.7816 27.2602 24.5053 27.5601C25.229 27.86 25.8475 28.3678 26.2827 29.0194C26.7178 29.6709 26.9501 30.4369 26.9501 31.2205C26.9485 32.2708 26.5307 33.2776 25.7883 34.0202C25.0459 34.7629 24.0396 35.1809 22.9897 35.1825ZM22.9897 27.8925C22.3317 27.8925 21.6885 28.0876 21.1415 28.4533C20.5944 28.819 20.168 29.3388 19.9162 29.9469C19.6644 30.5551 19.5985 31.2242 19.7269 31.8698C19.8552 32.5154 20.1721 33.1084 20.6373 33.5739C21.1026 34.0393 21.6954 34.3562 22.3407 34.4846C22.986 34.6131 23.655 34.5472 24.2628 34.2953C24.8707 34.0434 25.3903 33.6168 25.7558 33.0695C26.1214 32.5222 26.3165 31.8788 26.3165 31.2205C26.3157 30.3381 25.9649 29.4921 25.3412 28.8682C24.7174 28.2442 23.8718 27.8933 22.9897 27.8925Z" fill="white"/>
<path d="M54.0385 15.214C56.0506 15.214 57.6819 13.5821 57.6819 11.569C57.6819 9.55589 56.0506 7.92395 54.0385 7.92395C52.0258 7.92395 50.3945 9.55589 50.3945 11.569C50.3945 13.5821 52.0258 15.214 54.0385 15.214Z" fill="#BDDFE9"/>
<path d="M54.3583 13.6292C56.3705 13.6292 58.0017 11.9972 58.0017 9.98415C58.0017 7.97105 56.3705 6.33911 54.3583 6.33911C52.3461 6.33911 50.7148 7.97105 50.7148 9.98415C50.7148 11.9972 52.3461 13.6292 54.3583 13.6292Z" fill="#8FDAFF"/>
<path d="M57.6817 10.1111C57.6831 10.9253 57.4122 11.7165 56.9116 12.3584C56.4111 13.0004 55.7103 13.4561 54.9206 13.6528C54.1309 13.8494 53.298 13.7757 52.5554 13.4435C51.8123 13.1112 51.2022 12.5394 50.8223 11.8195C51.3473 12.1014 51.9338 12.2484 52.5299 12.2474C53.1596 12.2507 53.7798 12.0902 54.3293 11.7819C54.8788 11.4735 55.339 11.0278 55.6647 10.4883C55.9903 9.94882 56.1705 9.33403 56.1873 8.704C56.2046 8.07397 56.0576 7.45034 55.7617 6.89404C56.3434 7.20507 56.83 7.66899 57.1682 8.2358C57.5063 8.80266 57.6841 9.45099 57.6817 10.1111Z" fill="#38609B"/>
<path d="M54.0356 13.9462C53.3083 13.9465 52.595 13.7466 51.9739 13.3686C51.3528 12.9905 50.8475 12.4488 50.5131 11.8027C50.1793 11.1565 50.0294 10.4309 50.0799 9.70522C50.1303 8.97956 50.3796 8.2818 50.7999 7.68828C51.2207 7.09476 51.7962 6.62844 52.4638 6.34028C53.1315 6.05207 53.8655 5.95321 54.5855 6.05447C55.3056 6.15568 55.9838 6.45316 56.5463 6.91425C57.1088 7.37539 57.5335 7.98235 57.7741 8.66882C57.9821 9.26647 58.0445 9.90524 57.9557 10.5319C57.8668 11.1585 57.63 11.7548 57.264 12.2711C56.8984 12.7874 56.4142 13.2088 55.8527 13.5002C55.2912 13.7916 54.6682 13.9445 54.0356 13.9462ZM54.0356 6.65611C53.3285 6.65568 52.6397 6.88039 52.069 7.29771C51.4979 7.71504 51.0747 8.30332 50.8604 8.97735C50.6457 9.65138 50.6515 10.3762 50.8763 11.0468C51.1011 11.7174 51.5339 12.299 52.1108 12.7074C52.6882 13.1157 53.3804 13.3297 54.0874 13.3182C54.7945 13.3067 55.4795 13.0704 56.0434 12.6435C56.6069 12.2166 57.0204 11.6212 57.2231 10.9437C57.4263 10.2662 57.4086 9.54157 57.1722 8.87484C56.9417 8.22671 56.5166 7.66571 55.955 7.26851C55.3935 6.87135 54.7234 6.65746 54.0356 6.65611Z" fill="white"/>
<path d="M42.138 15.5309C42.0667 15.5298 41.9979 15.5046 41.9427 15.4595C41.8874 15.4144 41.849 15.352 41.8336 15.2824C41.8183 15.2127 41.8268 15.14 41.8579 15.0757C41.889 15.0116 41.9408 14.9597 42.005 14.9287L50.2428 11.0079C50.3173 10.9786 50.3999 10.9786 50.4748 11.008C50.5493 11.0374 50.6098 11.0939 50.6444 11.1663C50.679 11.2386 50.6847 11.3213 50.6607 11.3978C50.6367 11.4742 50.5848 11.5388 50.5152 11.5784L42.2775 15.4992C42.2342 15.5209 42.1864 15.5318 42.138 15.5309Z" fill="white"/>
<path d="M17.2863 5.83826L20.1727 11.6925L24.7319 12.0443L21.5636 14.263L23.4646 22.8209L17.92 20.0032L17.9168 18.0982L12.0586 20.2852L12.6131 17.1886L13.0091 12.9952L14.3968 11.6925L17.2863 5.83826Z" fill="#BDDFE9"/>
<path opacity="0.3" d="M0.649636 23.8067C0.85878 23.6016 1.10645 23.44 1.37834 23.3312C1.65025 23.2224 1.94099 23.1685 2.2338 23.1727H9.45759C10.0458 23.1727 10.6099 22.939 11.0258 22.5229C11.4418 22.1068 11.6754 21.5424 11.6754 20.954C11.6754 20.3656 11.4418 19.8012 11.0258 19.3851C10.6099 18.9691 10.0458 18.7353 9.45759 18.7353H5.26904C4.68086 18.7353 4.11674 18.5015 3.70082 18.0855C3.2849 17.6694 3.05123 17.105 3.05123 16.5166C3.05123 15.9282 3.2849 15.3638 3.70082 14.9477C4.11674 14.5316 4.68086 14.2979 5.26904 14.2979H15.525C15.9888 14.2979 16.4337 14.4822 16.7616 14.8103C17.0896 15.1384 17.2739 15.5835 17.2739 16.0475V39.176C17.2739 39.64 17.0896 40.085 16.7616 40.4131C16.4337 40.7413 15.9888 40.9256 15.525 40.9256H12.5056C13.0937 40.9256 13.6579 40.6918 14.0738 40.2758C14.4897 39.8596 14.7234 39.2953 14.7234 38.7069C14.7234 38.1184 14.4897 37.5541 14.0738 37.138C13.6579 36.7219 13.0937 36.4882 12.5056 36.4882H2.21796C1.62975 36.4882 1.06564 36.2544 0.649717 35.8384C0.233792 35.4222 0.00012847 34.8579 0.00012847 34.2695C0.00012847 33.681 0.233792 33.1167 0.649717 32.7006C1.06564 32.2845 1.62975 32.0507 2.21796 32.0507H7.83858C8.42681 32.0507 8.99089 31.817 9.40682 31.4009C9.82276 30.9848 10.0564 30.4205 10.0564 29.832C10.0564 29.2436 9.82276 28.6793 9.40682 28.2631C8.99089 27.8471 8.42681 27.6133 7.83858 27.6133H2.21796C1.62975 27.6133 1.06564 27.3795 0.649717 26.9635C0.233792 26.5474 0.00012847 25.983 0.00012847 25.3946C-0.00305041 25.1004 0.0527942 24.8086 0.164358 24.5364C0.275921 24.2641 0.440936 24.0171 0.649636 23.8098" fill="#BDDFE9"/>
<path opacity="0.3" d="M59.7148 6.50395V29.6578C59.7144 29.8881 59.7595 30.1162 59.8474 30.329C59.9353 30.5419 60.0641 30.7353 60.2269 30.8982C60.3897 31.061 60.5833 31.1901 60.7956 31.278C61.0084 31.366 61.2366 31.411 61.4667 31.4106H64.4958C63.9073 31.4106 63.3434 31.1768 62.9274 30.7607C62.5114 30.3446 62.278 29.7803 62.278 29.1919C62.278 28.6034 62.5114 28.0391 62.9274 27.623C63.3434 27.2069 63.9073 26.9732 64.4958 26.9732H74.7738C75.3622 26.9732 75.9262 26.7394 76.3421 26.3233C76.7581 25.9072 76.9916 25.3429 76.9916 24.7544C76.9916 24.166 76.7581 23.6016 76.3421 23.1856C75.9262 22.7695 75.3622 22.5357 74.7738 22.5357H69.1628C68.5744 22.5357 68.0105 22.302 67.5945 21.8859C67.1785 21.4698 66.9451 20.9054 66.9451 20.317C66.9451 19.7286 67.1785 19.1642 67.5945 18.7481C68.0105 18.3321 68.5744 18.0983 69.1628 18.0983H74.7738C75.3622 18.0983 75.9262 17.8645 76.3421 17.4485C76.7581 17.0323 76.9916 16.468 76.9916 15.8796C76.9916 15.2911 76.7581 14.7268 76.3421 14.3107C75.9262 13.8946 75.3622 13.6609 74.7738 13.6609H67.5407C66.9523 13.6609 66.3883 13.4271 65.9724 13.011C65.5564 12.5949 65.3229 12.0306 65.3229 11.4422C65.3229 10.8537 65.5564 10.2894 65.9724 9.87331C66.3883 9.45718 66.9523 9.22344 67.5407 9.22344H71.7322C72.3207 9.22344 72.8846 8.98971 73.3006 8.57358C73.7165 8.1575 73.95 7.59319 73.95 7.00471C73.95 6.41628 73.7165 5.85197 73.3006 5.43584C72.8846 5.01976 72.3207 4.78601 71.7322 4.78601H61.4667C61.0079 4.78511 60.567 4.96471 60.2394 5.28612C59.9113 5.60747 59.723 6.04488 59.7148 6.50395Z" fill="#BDDFE9"/>
<path d="M56.916 22.913C57.4722 22.913 57.9233 22.4617 57.9233 21.905C57.9233 21.3484 57.4722 20.8971 56.916 20.8971C56.3593 20.8971 55.9082 21.3484 55.9082 21.905C55.9082 22.4617 56.3593 22.913 56.916 22.913Z" fill="#BDDFE9"/>
<path opacity="0.5" d="M55.1582 23.6675C55.4363 23.6675 55.6621 23.4418 55.6621 23.1635C55.6621 22.8852 55.4363 22.6595 55.1582 22.6595C54.8801 22.6595 54.6543 22.8852 54.6543 23.1635C54.6543 23.4418 54.8801 23.6675 55.1582 23.6675Z" fill="#BDDFE9"/>
<path d="M37.1189 25.3535C37.6753 25.3535 38.1264 24.9022 38.1264 24.3456C38.1264 23.7889 37.6753 23.3376 37.1189 23.3376C36.5624 23.3376 36.1113 23.7889 36.1113 24.3456C36.1113 24.9022 36.5624 25.3535 37.1189 25.3535Z" fill="#BDDFE9"/>
<path opacity="0.5" d="M35.3593 26.1078C35.6375 26.1078 35.863 25.8822 35.863 25.6038C35.863 25.3255 35.6375 25.0999 35.3593 25.0999C35.081 25.0999 34.8555 25.3255 34.8555 25.6038C34.8555 25.8822 35.081 26.1078 35.3593 26.1078Z" fill="#BDDFE9"/>
<path d="M22.7263 24.9765C23.2828 24.9765 23.7338 24.5252 23.7338 23.9685C23.7338 23.4119 23.2828 22.9606 22.7263 22.9606C22.1698 22.9606 21.7188 23.4119 21.7188 23.9685C21.7188 24.5252 22.1698 24.9765 22.7263 24.9765Z" fill="#BDDFE9"/>
<path opacity="0.5" d="M20.9647 25.7307C21.2429 25.7307 21.4685 25.5051 21.4685 25.2267C21.4685 24.9484 21.2429 24.7228 20.9647 24.7228C20.6865 24.7228 20.4609 24.9484 20.4609 25.2267C20.4609 25.5051 20.6865 25.7307 20.9647 25.7307Z" fill="#BDDFE9"/>
<path d="M37.1211 9.28687H43.2487C43.2487 9.4718 43.1752 9.64914 43.0445 9.77994C42.9138 9.91069 42.7365 9.98419 42.5516 9.98419H37.8213C37.6365 9.98419 37.4592 9.91069 37.3284 9.77994C37.1977 9.64914 37.1243 9.4718 37.1243 9.28687H37.1211Z" fill="white"/>
<path d="M27.7155 40.5707H18.6256C18.2281 40.5707 17.8469 40.4128 17.5659 40.1316C17.2848 39.8504 17.127 39.4691 17.127 39.0715V17.5183C17.127 17.1207 17.2848 16.7393 17.5659 16.4582C17.8469 16.177 18.2281 16.019 18.6256 16.019H27.7155C28.113 16.019 28.4942 16.177 28.7752 16.4582C29.0563 16.7393 29.2142 17.1207 29.2142 17.5183V39.0715C29.2142 39.4691 29.0563 39.8504 28.7752 40.1316C28.4942 40.4128 28.113 40.5707 27.7155 40.5707ZM18.6256 16.6434C18.3962 16.6434 18.1762 16.7346 18.014 16.8969C17.8518 17.0592 17.7606 17.2793 17.7606 17.5088V39.062C17.7594 39.1764 17.7808 39.29 17.8237 39.3961C17.8666 39.5021 17.9301 39.5986 18.0106 39.68C18.091 39.7614 18.1868 39.8259 18.2924 39.87C18.398 39.9141 18.5112 39.9368 18.6256 39.9368H27.7155C27.9447 39.936 28.1642 39.8445 28.3262 39.6824C28.4883 39.5203 28.5796 39.3007 28.5805 39.0715V17.5183C28.5805 17.2888 28.4894 17.0687 28.3272 16.9064C28.1649 16.7441 27.9449 16.653 27.7155 16.653L18.6256 16.6434Z" fill="white"/>
<path d="M43.0456 40.5708H33.9556C33.5582 40.5708 33.177 40.4128 32.8959 40.1317C32.6149 39.8505 32.457 39.4692 32.457 39.0716V10.2631C32.457 9.86555 32.6149 9.4842 32.8959 9.20305C33.177 8.9219 33.5582 8.76392 33.9556 8.76392H43.0456C43.4431 8.76392 43.8242 8.9219 44.1053 9.20305C44.3863 9.4842 44.5442 9.86555 44.5442 10.2631V39.0716C44.5442 39.4692 44.3863 39.8505 44.1053 40.1317C43.8242 40.4128 43.4431 40.5708 43.0456 40.5708ZM33.9556 9.39783C33.7262 9.39783 33.5062 9.489 33.344 9.65127C33.1818 9.81358 33.0907 10.0337 33.0907 10.2631V39.0716C33.0907 39.3011 33.1818 39.5212 33.344 39.6834C33.5062 39.8457 33.7262 39.9369 33.9556 39.9369H43.0456C43.2747 39.936 43.4943 39.8446 43.6563 39.6825C43.8183 39.5204 43.9097 39.3008 43.9105 39.0716V10.2631C43.9105 10.0337 43.8194 9.81358 43.6572 9.65127C43.495 9.489 43.275 9.39783 43.0456 9.39783H33.9556Z" fill="white"/>
<path d="M48.2698 9.19173C48.1857 9.19173 48.1055 9.15834 48.0459 9.09888C47.9865 9.03946 47.9531 8.95885 47.9531 8.87479V7.66081C47.9531 7.57675 47.9865 7.49614 48.0459 7.43668C48.1055 7.37726 48.1857 7.34387 48.2698 7.34387C48.3538 7.34387 48.4345 7.37726 48.4941 7.43668C48.5532 7.49614 48.5868 7.57675 48.5868 7.66081V8.87479C48.5868 8.95885 48.5532 9.03946 48.4941 9.09888C48.4345 9.15834 48.3538 9.19173 48.2698 9.19173Z" fill="white"/>
<path d="M48.2698 10.615C48.1857 10.615 48.1055 10.5816 48.0459 10.5222C47.9865 10.4628 47.9531 10.3821 47.9531 10.2981V10.035C47.9531 9.95094 47.9865 9.87034 48.0459 9.81087C48.1055 9.75145 48.1857 9.71802 48.2698 9.71802C48.3538 9.71802 48.4345 9.75145 48.4941 9.81087C48.5532 9.87034 48.5868 9.95094 48.5868 10.035V10.2981C48.5868 10.3821 48.5532 10.4628 48.4941 10.5222C48.4345 10.5816 48.3538 10.615 48.2698 10.615Z" fill="white"/>
<path d="M58.5416 40.5707H49.4519C49.0542 40.5707 48.6733 40.4127 48.3923 40.1316C48.1113 39.8504 47.9531 39.4691 47.9531 39.0715V11.3661C47.9531 11.282 47.9865 11.2014 48.0459 11.1419C48.1055 11.0825 48.1857 11.0491 48.2698 11.0491C48.3538 11.0491 48.4345 11.0825 48.4941 11.1419C48.5532 11.2014 48.5868 11.282 48.5868 11.3661V39.0715C48.5878 39.3007 48.679 39.5203 48.8409 39.6824C49.0033 39.8445 49.2228 39.9359 49.4519 39.9368H58.5416C58.7712 39.9368 58.9912 39.8456 59.1535 39.6833C59.3154 39.5211 59.4067 39.301 59.4067 39.0715V38.3963C59.4067 38.3123 59.4398 38.2317 59.4994 38.1722C59.5589 38.1128 59.6396 38.0794 59.7237 38.0794C59.8073 38.0794 59.888 38.1128 59.9475 38.1722C60.0071 38.2317 60.0403 38.3123 60.0403 38.3963V39.0715C60.0403 39.4691 59.8822 39.8504 59.6012 40.1316C59.3202 40.4127 58.9393 40.5707 58.5416 40.5707Z" fill="white"/>
<path d="M59.7237 31.192C59.6396 31.192 59.5589 31.1585 59.4994 31.0991C59.4398 31.0397 59.4067 30.959 59.4067 30.875V1.49922C59.4067 1.26973 59.3154 1.04964 59.1535 0.887359C58.9912 0.725083 58.7712 0.633917 58.5416 0.633917H49.4519C49.2228 0.634753 49.0033 0.726187 48.8409 0.888281C48.679 1.05038 48.5878 1.26998 48.5868 1.49922V6.50086C48.5868 6.58492 48.5532 6.66552 48.4941 6.72494C48.4345 6.78441 48.3538 6.81779 48.2698 6.81779C48.1857 6.81779 48.1055 6.78441 48.0459 6.72494C47.9865 6.66552 47.9531 6.58492 47.9531 6.50086V1.49922C47.9531 1.1016 48.1113 0.72027 48.3923 0.43911C48.6733 0.157953 49.0542 0 49.4519 0H58.5416C58.9393 0 59.3202 0.157953 59.6012 0.43911C59.8822 0.72027 60.0403 1.1016 60.0403 1.49922V30.875C60.0403 30.959 60.0071 31.0397 59.9475 31.0991C59.888 31.1585 59.8073 31.192 59.7237 31.192Z" fill="white"/>
<path d="M53.0574 7.56919C53.0151 7.57466 52.9728 7.56318 52.9392 7.53734C52.9056 7.5115 52.8835 7.47336 52.8782 7.43133C52.8729 7.3893 52.8845 7.34679 52.9099 7.31321C52.9359 7.27963 52.9743 7.25768 53.0161 7.25225L53.1078 7.23006C53.128 7.22487 53.1491 7.22386 53.1698 7.22699C53.1904 7.23011 53.2101 7.23736 53.2279 7.24831C53.2457 7.25927 53.2611 7.27368 53.2731 7.29068C53.2851 7.30769 53.2937 7.32695 53.298 7.34731C53.3076 7.3881 53.3004 7.43094 53.2788 7.46658C53.2567 7.50223 53.2217 7.52773 53.1808 7.53748L53.0982 7.55968L53.0574 7.56919Z" fill="white"/>
<path d="M51.3746 9.78145C51.354 9.78063 51.3333 9.77569 51.3146 9.76699C51.2958 9.75825 51.2785 9.74586 51.2646 9.73058C51.2507 9.71526 51.2396 9.69734 51.2324 9.67774C51.2252 9.65819 51.2219 9.63744 51.2228 9.6166C51.2228 9.55324 51.3021 8.06987 52.563 7.43278C52.6005 7.41395 52.6437 7.41073 52.6836 7.4238C52.7229 7.43687 52.7561 7.46516 52.7753 7.50248C52.7849 7.52093 52.7907 7.54115 52.7926 7.56195C52.7945 7.58275 52.7921 7.60364 52.7854 7.62348C52.7787 7.64332 52.7686 7.66162 52.7547 7.67733C52.7412 7.69299 52.7244 7.70577 52.7057 7.71484C51.6061 8.27272 51.5394 9.6166 51.5394 9.6166C51.5403 9.6385 51.537 9.66031 51.5288 9.68072C51.5206 9.70114 51.5086 9.71968 51.4933 9.73515C51.4779 9.75061 51.4591 9.76276 51.439 9.77069C51.4183 9.77866 51.3967 9.78232 51.3746 9.78145Z" fill="white"/>
<path d="M38.4991 21.4866C40.5113 21.4866 42.1427 19.8547 42.1427 17.8416C42.1427 15.8285 40.5113 14.1965 38.4991 14.1965C36.4868 14.1965 34.8555 15.8285 34.8555 17.8416C34.8555 19.8547 36.4868 21.4866 38.4991 21.4866Z" fill="#BDDFE9"/>
<path d="M38.4991 19.9715C40.5113 19.9715 42.1427 18.3395 42.1427 16.3264C42.1427 14.3133 40.5113 12.6814 38.4991 12.6814C36.4868 12.6814 34.8555 14.3133 34.8555 16.3264C34.8555 18.3395 36.4868 19.9715 38.4991 19.9715Z" fill="white"/>
<path d="M26.1515 29.7942C26.0815 29.794 26.0136 29.7705 25.9582 29.7276C25.925 29.7021 25.8971 29.6703 25.8762 29.634C25.8553 29.5977 25.8418 29.5576 25.8366 29.516C25.8312 29.4745 25.8342 29.4323 25.8453 29.3919C25.8564 29.3515 25.8754 29.3137 25.9012 29.2807L34.9373 17.6356C34.9904 17.5749 35.0647 17.5367 35.145 17.529C35.2252 17.5211 35.3054 17.5442 35.3693 17.5935C35.4331 17.6429 35.4758 17.7147 35.4885 17.7943C35.5012 17.874 35.4832 17.9555 35.4379 18.0223L26.4018 29.6832C26.371 29.7193 26.3326 29.7479 26.2892 29.7671C26.246 29.7863 26.1989 29.7955 26.1515 29.7942Z" fill="white"/>
<path d="M40.2662 13.2139C40.6167 13.8989 40.7411 14.6775 40.6215 15.4377C40.5019 16.1979 40.1444 16.9006 39.6004 17.4448C39.0564 17.989 38.354 18.3466 37.5941 18.4663C36.8342 18.586 36.0559 18.4615 35.3711 18.1109C35.6309 18.6252 36.0088 19.0707 36.474 19.4106C36.9391 19.7506 37.4782 19.9753 38.0471 20.0665C38.6159 20.1576 39.1982 20.1125 39.7462 19.9349C40.2942 19.7573 40.7923 19.4522 41.1997 19.0447C41.607 18.6373 41.912 18.1389 42.0895 17.5907C42.267 17.0424 42.3121 16.4599 42.221 15.8909C42.1299 15.3218 41.9052 14.7825 41.5654 14.3172C41.2256 13.8518 40.7804 13.4737 40.2662 13.2139Z" fill="#BDDFE9"/>
<path d="M16.9696 2.9856L19.856 8.83984L26.3162 9.77801L21.643 14.3359L22.7455 20.7702L16.9696 17.7337L11.1938 20.7702L12.2964 14.3359L7.62305 9.77801L14.0801 8.83984L16.9696 2.9856Z" fill="white"/>
<path d="M21.6425 14.4661L22.7451 20.9194L16.9692 17.8639L11.1934 20.9194L11.7795 17.4931C13.9939 17.1752 16.1262 16.4326 18.0591 15.3061C20.4675 13.8976 22.5027 11.9312 23.9934 9.57227L26.3158 9.91144L21.6425 14.4661Z" fill="#38609B"/>
<path d="M18.4934 6.65616C18.4343 6.65655 18.3763 6.64045 18.3259 6.60966C18.2755 6.57887 18.2347 6.53459 18.2082 6.48184L17.8375 5.72428C17.8032 5.64945 17.7993 5.56414 17.8266 5.48646C17.8541 5.40879 17.9107 5.34486 17.9843 5.30816C18.0581 5.27151 18.1432 5.26497 18.2216 5.29C18.3001 5.31503 18.3657 5.36959 18.4046 5.44217L18.7785 6.19973C18.7969 6.2372 18.8077 6.27789 18.8103 6.31953C18.8129 6.36118 18.8073 6.40292 18.7938 6.44236C18.7802 6.48184 18.7591 6.51821 18.7314 6.54948C18.7038 6.5807 18.6702 6.6062 18.6328 6.62446C18.5893 6.6455 18.5416 6.65635 18.4934 6.65616Z" fill="white"/>
<path d="M23.1684 21.6136L16.9711 18.3552L10.7739 21.6136L11.9557 14.7102L6.94336 9.82583L13.8725 8.81792L16.9711 2.53577L17.8519 4.32342C17.8863 4.39827 17.8902 4.48356 17.8628 4.56124C17.8353 4.63891 17.7788 4.70285 17.7051 4.73953C17.6313 4.7762 17.5462 4.78272 17.4678 4.7577C17.3893 4.73269 17.3237 4.6781 17.2848 4.60551L16.968 3.97159L14.2939 9.39477L8.30573 10.2632L12.6368 14.4883L11.6135 20.4566L16.9711 17.6389L22.3256 20.4566L21.3022 14.4883L25.6365 10.2632L19.6452 9.39477L19.3537 8.80206C19.3163 8.72679 19.3104 8.6398 19.3371 8.56016C19.3638 8.48052 19.4211 8.41476 19.4963 8.37734C19.5337 8.35894 19.5744 8.34813 19.616 8.34549C19.6576 8.34285 19.6994 8.34847 19.7388 8.36202C19.7782 8.37556 19.8147 8.39679 19.8459 8.42441C19.8771 8.45208 19.9026 8.48561 19.9208 8.52312L20.0666 8.81474L26.9989 9.82583L21.9834 14.7102L23.1684 21.6136Z" fill="white"/>
<path d="M19.1509 7.99376C19.0924 7.99356 19.0351 7.97718 18.9853 7.94639C18.9356 7.91565 18.8953 7.8717 18.8689 7.81944L18.7517 7.58171C18.7326 7.544 18.721 7.50294 18.7178 7.46081C18.7145 7.41868 18.7195 7.37632 18.7326 7.33616C18.7457 7.296 18.7666 7.25877 18.794 7.22669C18.8215 7.19455 18.855 7.16818 18.8927 7.14906C18.9303 7.1299 18.9714 7.11837 19.0135 7.1151C19.0556 7.11183 19.098 7.11688 19.1381 7.12994C19.1783 7.14306 19.2155 7.16395 19.2475 7.19143C19.2797 7.2189 19.306 7.25243 19.3252 7.29009L19.4424 7.52782C19.4797 7.60304 19.4857 7.69008 19.459 7.76967C19.4322 7.84931 19.375 7.91512 19.2998 7.95254C19.2544 7.97834 19.2032 7.99251 19.1509 7.99376Z" fill="white"/>
<g opacity="0.15">
<path opacity="0.15" d="M16.4604 13.7118C17.5733 13.7118 18.4754 12.8092 18.4754 11.6959C18.4754 10.5826 17.5733 9.68005 16.4604 9.68005C15.3475 9.68005 14.4453 10.5826 14.4453 11.6959C14.4453 12.8092 15.3475 13.7118 16.4604 13.7118Z" fill="white"/>
<path opacity="0.15" d="M14.1403 15.68C14.6968 15.68 15.1479 15.2288 15.1479 14.6721C15.1479 14.1154 14.6968 13.6642 14.1403 13.6642C13.5839 13.6642 13.1328 14.1154 13.1328 14.6721C13.1328 15.2288 13.5839 15.68 14.1403 15.68Z" fill="white"/>
</g>
<path d="M17.0671 7.49602C17.1931 7.49602 17.314 7.44597 17.4031 7.35676C17.4922 7.26761 17.5423 7.14671 17.5423 7.02062C17.5423 6.89452 17.4922 6.77357 17.4031 6.68442C17.314 6.59527 17.1931 6.54517 17.0671 6.54517C16.941 6.54517 16.8201 6.59527 16.731 6.68442C16.6418 6.77357 16.5918 6.89452 16.5918 7.02062C16.5918 7.14671 16.6418 7.26761 16.731 7.35676C16.8201 7.44597 16.941 7.49602 17.0671 7.49602Z" fill="#FDFEFF"/>
<path d="M15.5044 10.7766C15.6842 10.0291 15.9873 9.31671 16.401 8.66882C16.645 8.27892 16.0271 7.92077 15.7863 8.31062C15.3401 9.01059 15.0125 9.77958 14.8169 10.5864C14.7155 11.0333 15.3998 11.2203 15.5044 10.7766Z" fill="#FDFEFF"/>
<path d="M38.4988 20.2855C37.7152 20.2861 36.9491 20.0542 36.2973 19.619C35.6455 19.1839 35.1374 18.5652 34.8372 17.8411C34.5371 17.117 34.4584 16.3201 34.6111 15.5513C34.7638 14.7824 35.1411 14.0762 35.6952 13.5219C36.2492 12.9676 36.9552 12.5902 37.7237 12.4374C38.4923 12.2847 39.2888 12.3634 40.0126 12.6637C40.7364 12.9639 41.3549 13.4722 41.7899 14.1243C42.2248 14.7763 42.4566 15.5427 42.456 16.3266C42.4535 17.3758 42.0358 18.3813 41.2941 19.1232C40.5526 19.8651 39.5475 20.2829 38.4988 20.2855ZM38.4988 12.9954C37.8408 12.9948 37.1974 13.1893 36.65 13.5545C36.1025 13.9197 35.6756 14.439 35.4233 15.0469C35.1709 15.6548 35.1044 16.3239 35.2321 16.9696C35.3599 17.6153 35.6762 18.2086 36.141 18.6745C36.6058 19.1404 37.1983 19.4579 37.8435 19.5869C38.4887 19.716 39.1576 19.6507 39.7657 19.3994C40.3738 19.1481 40.8938 18.722 41.2599 18.175C41.626 17.6281 41.8217 16.9848 41.8223 16.3266C41.8223 15.4442 41.4724 14.5979 40.8493 13.9733C40.2261 13.3488 39.3808 12.9971 38.4988 12.9954Z" fill="white"/>
<path d="M59.7428 36.8528C59.6587 36.8528 59.5781 36.8194 59.519 36.76C59.4594 36.7005 59.4258 36.6199 59.4258 36.5359V34.5707C59.4258 34.4867 59.4594 34.4061 59.519 34.3466C59.5781 34.2872 59.6587 34.2538 59.7428 34.2538C59.8269 34.2538 59.9076 34.2872 59.9667 34.3466C60.0262 34.4061 60.0598 34.4867 60.0598 34.5707V36.5359C60.0598 36.6199 60.0262 36.7005 59.9667 36.76C59.9076 36.8194 59.8269 36.8528 59.7428 36.8528Z" fill="white"/>
<path d="M59.7428 33.3725C59.6587 33.3725 59.5781 33.3392 59.519 33.2797C59.4594 33.2203 59.4258 33.1397 59.4258 33.0556V32.6784C59.4258 32.5944 59.4594 32.5137 59.519 32.4543C59.5781 32.3948 59.6587 32.3615 59.7428 32.3615C59.8269 32.3615 59.9076 32.3948 59.9667 32.4543C60.0262 32.5137 60.0598 32.5944 60.0598 32.6784V33.0556C60.0598 33.1397 60.0262 33.2203 59.9667 33.2797C59.9076 33.3392 59.8269 33.3725 59.7428 33.3725Z" fill="white"/>
</g>
</svg>
