<svg width="32" height="32" viewBox="0 0 32 32" fill="none" xmlns="http://www.w3.org/2000/svg">
<path d="M21.62 14.7496C21.19 14.7496 20.85 14.3996 20.85 13.9796C20.85 13.6096 20.48 12.8396 19.86 12.1696C19.25 11.5196 18.58 11.1396 18.02 11.1396C17.59 11.1396 17.25 10.7896 17.25 10.3696C17.25 9.94961 17.6 9.59961 18.02 9.59961C19.02 9.59961 20.07 10.1396 20.99 11.1096C21.85 12.0196 22.4 13.1496 22.4 13.9696C22.4 14.3996 22.05 14.7496 21.62 14.7496Z" fill="#0E42E4"/>
<path d="M25.23 14.75C24.8 14.75 24.46 14.4 24.46 13.98C24.46 10.43 21.57 7.55 18.03 7.55C17.6 7.55 17.26 7.2 17.26 6.78C17.26 6.36 17.6 6 18.02 6C22.42 6 26 9.58 26 13.98C26 14.4 25.65 14.75 25.23 14.75Z" fill="#0E42E4"/>
<path opacity="0.4" d="M15.79 18.21L12.52 21.48C12.16 21.16 11.81 20.83 11.47 20.49C10.44 19.45 9.51 18.36 8.68 17.22C7.86 16.08 7.2 14.94 6.72 13.81C6.24 12.67 6 11.58 6 10.54C6 9.86 6.12 9.21 6.36 8.61C6.6 8 6.98 7.44 7.51 6.94C8.15 6.31 8.85 6 9.59 6C9.87 6 10.15 6.06 10.4 6.18C10.66 6.3 10.89 6.48 11.07 6.74L13.39 10.01C13.57 10.26 13.7 10.49 13.79 10.71C13.88 10.92 13.93 11.13 13.93 11.32C13.93 11.56 13.86 11.8 13.72 12.03C13.59 12.26 13.4 12.5 13.16 12.74L12.4 13.53C12.29 13.64 12.24 13.77 12.24 13.93C12.24 14.01 12.25 14.08 12.27 14.16C12.3 14.24 12.33 14.3 12.35 14.36C12.53 14.69 12.84 15.12 13.28 15.64C13.73 16.16 14.21 16.69 14.73 17.22C15.09 17.57 15.44 17.91 15.79 18.21Z" fill="#B4C4F7"/>
<path d="M25.9701 22.3291C25.9701 22.6091 25.9201 22.8991 25.8201 23.1791C25.7901 23.2591 25.7601 23.3391 25.7201 23.4191C25.5501 23.7791 25.3301 24.1191 25.0401 24.4391C24.5501 24.9791 24.0101 25.3691 23.4001 25.6191C23.3901 25.6191 23.3801 25.6291 23.3701 25.6291C22.7801 25.8691 22.1401 25.9991 21.4501 25.9991C20.4301 25.9991 19.3401 25.7591 18.1901 25.2691C17.0401 24.7791 15.8901 24.1191 14.7501 23.2891C14.3601 22.9991 13.9701 22.7091 13.6001 22.3991L16.8701 19.1291C17.1501 19.3391 17.4001 19.4991 17.6101 19.6091C17.6601 19.6291 17.7201 19.6591 17.7901 19.6891C17.8701 19.7191 17.9501 19.7291 18.0401 19.7291C18.2101 19.7291 18.3401 19.6691 18.4501 19.5591L19.2101 18.8091C19.4601 18.5591 19.7001 18.3691 19.9301 18.2491C20.1601 18.1091 20.3901 18.0391 20.6401 18.0391C20.8301 18.0391 21.0301 18.0791 21.2501 18.1691C21.4701 18.2591 21.7001 18.3891 21.9501 18.5591L25.2601 20.9091C25.5201 21.0891 25.7001 21.2991 25.8101 21.5491C25.9101 21.7991 25.9701 22.0491 25.9701 22.3291Z" fill="#0E42E4"/>
</svg>
