<svg width="32" height="32" viewBox="0 0 32 32" fill="none" xmlns="http://www.w3.org/2000/svg">
<path opacity="0.4" d="M22.4701 20.83L22.8601 23.99C22.9601 24.82 22.0701 25.4 21.3601 24.97L17.1701 22.48C16.7101 22.48 16.2601 22.45 15.8201 22.39C16.5601 21.52 17.0001 20.42 17.0001 19.23C17.0001 16.39 14.5401 14.09 11.5001 14.09C10.3401 14.09 9.2701 14.42 8.3801 15C8.3501 14.75 8.34009 14.5 8.34009 14.24C8.34009 9.68999 12.2901 6 17.1701 6C22.0501 6 26.0001 9.68999 26.0001 14.24C26.0001 16.94 24.6101 19.33 22.4701 20.83Z" fill="#B4C4F7"/>
<path d="M17 19.2298C17 20.4198 16.56 21.5198 15.82 22.3898C14.83 23.5898 13.26 24.3598 11.5 24.3598L8.89 25.9098C8.45 26.1798 7.89 25.8098 7.95 25.2998L8.2 23.3298C6.86 22.3998 6 20.9098 6 19.2298C6 17.4698 6.94 15.9198 8.38 14.9998C9.27 14.4198 10.34 14.0898 11.5 14.0898C14.54 14.0898 17 16.3898 17 19.2298Z" fill="#0E42E4"/>
</svg>
