<svg width="42" height="42" viewBox="0 0 42 42" fill="none" xmlns="http://www.w3.org/2000/svg">
<rect width="41.4321" height="41.4321" rx="5" fill="url(#paint0_linear_340_7590)"/>
<path d="M21 19.016C20.6076 19.016 20.224 19.1324 19.8977 19.3504C19.5715 19.5684 19.3172 19.8782 19.167 20.2408C19.0169 20.6033 18.9776 21.0022 19.0541 21.3871C19.1307 21.7719 19.3196 22.1254 19.5971 22.4029C19.8746 22.6804 20.2281 22.8693 20.6129 22.9459C20.9978 23.0224 21.3967 22.9831 21.7592 22.833C22.1218 22.6828 22.4316 22.4285 22.6496 22.1023C22.8676 21.776 22.984 21.3924 22.984 21C22.984 20.7395 22.9327 20.4815 22.833 20.2408C22.7333 20 22.5871 19.7813 22.4029 19.5971C22.2187 19.4129 22 19.2667 21.7592 19.167C21.5185 19.0673 21.2605 19.016 21 19.016ZM28.944 17.056C28.9398 16.4382 28.826 15.8261 28.608 15.248C28.4474 14.825 28.199 14.4409 27.8791 14.1209C27.5591 13.801 27.175 13.5526 26.752 13.392C26.1739 13.174 25.5618 13.0602 24.944 13.056C23.912 13 23.608 13 21 13C18.392 13 18.088 13 17.056 13.056C16.4382 13.0602 15.8261 13.174 15.248 13.392C14.825 13.5526 14.4409 13.801 14.1209 14.1209C13.801 14.4409 13.5526 14.825 13.392 15.248C13.174 15.8261 13.0602 16.4382 13.056 17.056C13 18.088 13 18.392 13 21C13 23.608 13 23.912 13.056 24.944C13.0646 25.564 13.1782 26.178 13.392 26.76C13.5519 27.1811 13.8001 27.563 14.12 27.88C14.4386 28.2018 14.8235 28.4503 15.248 28.608C15.8261 28.826 16.4382 28.9398 17.056 28.944C18.088 29 18.392 29 21 29C23.608 29 23.912 29 24.944 28.944C25.5618 28.9398 26.1739 28.826 26.752 28.608C27.1765 28.4503 27.5614 28.2018 27.88 27.88C28.1999 27.563 28.4481 27.1811 28.608 26.76C28.8258 26.1791 28.9396 25.5644 28.944 24.944C29 23.912 29 23.608 29 21C29 18.392 29 18.088 28.944 17.056ZM26.912 23.456C26.8863 23.9497 26.781 24.436 26.6 24.896C26.4447 25.2797 26.2138 25.6284 25.9211 25.9211C25.6284 26.2138 25.2797 26.4447 24.896 26.6C24.4316 26.7709 23.9426 26.8654 23.448 26.88H18.552C18.0574 26.8654 17.5684 26.7709 17.104 26.6C16.7073 26.4526 16.349 26.2174 16.056 25.912C15.7661 25.625 15.5423 25.2783 15.4 24.896C15.2284 24.4321 15.1365 23.9425 15.128 23.448V18.552C15.1365 18.0575 15.2284 17.5679 15.4 17.104C15.5474 16.7073 15.7826 16.349 16.088 16.056C16.3763 15.7677 16.7226 15.5441 17.104 15.4C17.5684 15.2291 18.0574 15.1346 18.552 15.12H23.448C23.9426 15.1346 24.4316 15.2291 24.896 15.4C25.2927 15.5474 25.651 15.7826 25.944 16.088C26.2339 16.375 26.4577 16.7217 26.6 17.104C26.7709 17.5684 26.8654 18.0574 26.88 18.552V21C26.88 22.648 26.936 22.816 26.912 23.448V23.456ZM25.632 17.504C25.5368 17.2456 25.3866 17.0109 25.1918 16.8162C24.9971 16.6214 24.7624 16.4713 24.504 16.376C24.1492 16.253 23.7755 16.1934 23.4 16.2H18.6C18.2226 16.2037 17.8489 16.2741 17.496 16.408C17.2415 16.4989 17.0094 16.643 16.8149 16.8306C16.6204 17.0182 16.468 17.245 16.368 17.496C16.2518 17.8523 16.1951 18.2253 16.2 18.6V23.4C16.2079 23.777 16.2782 24.15 16.408 24.504C16.5033 24.7624 16.6534 24.9971 16.8482 25.1918C17.0429 25.3866 17.2776 25.5368 17.536 25.632C17.8773 25.7575 18.2365 25.8277 18.6 25.84H23.4C23.7774 25.8363 24.1511 25.7659 24.504 25.632C24.7624 25.5368 24.9971 25.3866 25.1918 25.1918C25.3866 24.9971 25.5368 24.7624 25.632 24.504C25.7659 24.1511 25.8363 23.7774 25.84 23.4V18.6C25.8402 18.2222 25.7697 17.8478 25.632 17.496V17.504ZM21 24.056C20.5991 24.056 20.2021 23.9769 19.8317 23.8232C19.4614 23.6695 19.125 23.4443 18.8419 23.1604C18.5588 22.8766 18.3344 22.5396 18.1817 22.1689C18.029 21.7982 17.9509 21.4009 17.952 21C17.952 20.3952 18.1314 19.8041 18.4676 19.3013C18.8037 18.7986 19.2815 18.4069 19.8404 18.1759C20.3993 17.9448 21.0141 17.8848 21.6071 18.0033C22.2002 18.1219 22.7447 18.4137 23.1717 18.8419C23.5988 19.2701 23.8892 19.8154 24.0063 20.4087C24.1233 21.0021 24.0616 21.6168 23.8291 22.175C23.5965 22.7333 23.2036 23.21 22.7 23.5449C22.1964 23.8797 21.6048 24.0576 21 24.056ZM24.2 18.544C24.0232 18.5253 23.8595 18.4418 23.7405 18.3096C23.6216 18.1774 23.5558 18.0058 23.5558 17.828C23.5558 17.6502 23.6216 17.4786 23.7405 17.3464C23.8595 17.2142 24.0232 17.1307 24.2 17.112C24.3768 17.1307 24.5405 17.2142 24.6595 17.3464C24.7784 17.4786 24.8442 17.6502 24.8442 17.828C24.8442 18.0058 24.7784 18.1774 24.6595 18.3096C24.5405 18.4418 24.3768 18.5253 24.2 18.544Z" fill="white"/>
<defs>
<linearGradient id="paint0_linear_340_7590" x1="20.716" y1="0" x2="20.716" y2="41.4321" gradientUnits="userSpaceOnUse">
<stop stop-color="#373737"/>
<stop offset="1" stop-color="#222326"/>
</linearGradient>
</defs>
</svg>
