<svg width="42" height="42" viewBox="0 0 42 42" fill="none" xmlns="http://www.w3.org/2000/svg">
<rect x="0.339844" width="41.4321" height="41.4321" rx="5" fill="url(#paint0_linear_340_7594)"/>
<g clip-path="url(#clip0_340_7594)">
<path d="M15.6667 16.3333C15.6667 16.6978 15.5356 17.0111 15.2733 17.2733C15.0111 17.5356 14.6978 17.6667 14.3333 17.6667C13.9689 17.6667 13.6556 17.5356 13.3933 17.2733C13.1311 17.0111 13 16.6956 13 16.3267C13 15.9578 13.1311 15.6444 13.3933 15.3867C13.6556 15.1289 13.9689 15 14.3333 15C14.6978 15 15.0111 15.1311 15.2733 15.3933C15.5356 15.6556 15.6667 15.9689 15.6667 16.3333ZM15.7067 18.6533H13.04V27H15.7067V18.6533ZM19.92 18.6533H17.2667V27H19.8933V22.6133C19.8933 22.1511 20.0044 21.7556 20.2267 21.4267C20.4222 21.1244 20.68 20.9156 21 20.8C21.32 20.6844 21.64 20.6756 21.96 20.7733C22.28 20.8711 22.5422 21.0667 22.7467 21.36C22.96 21.6978 23.0667 22.1156 23.0667 22.6133V27H25.7067V21.7067C25.7067 20.9333 25.5422 20.2756 25.2133 19.7333C24.9111 19.2622 24.4978 18.9067 23.9733 18.6667C23.5022 18.4622 22.9822 18.3733 22.4133 18.4C21.8711 18.4267 21.3689 18.5622 20.9067 18.8067C20.4444 19.0511 20.1067 19.3733 19.8933 19.7733L19.92 18.6533Z" fill="white"/>
</g>
<defs>
<linearGradient id="paint0_linear_340_7594" x1="21.0559" y1="0" x2="21.0559" y2="41.4321" gradientUnits="userSpaceOnUse">
<stop stop-color="#373737"/>
<stop offset="1" stop-color="#222326"/>
</linearGradient>
<clipPath id="clip0_340_7594">
<rect width="16" height="16" fill="white" transform="matrix(1 0 0 -1 13 29)"/>
</clipPath>
</defs>
</svg>
