<svg width="195" height="58" viewBox="0 0 195 58" fill="none" xmlns="http://www.w3.org/2000/svg">
<path d="M71.36 43L63.2 22.6H68.64L75.16 41.36H72.48L79 22.6H84.28L76.08 43H71.36ZM93.4909 43.4C92.0776 43.4 90.8509 43.1067 89.8109 42.52C88.7976 41.9067 88.0109 41.08 87.4509 40.04C86.9176 39 86.6509 37.8267 86.6509 36.52V22.6H91.6909V35.48C91.6909 36.7333 91.9976 37.68 92.6109 38.32C93.2509 38.96 94.1443 39.28 95.2909 39.28C96.3309 39.28 97.2376 39.04 98.0109 38.56C98.8109 38.08 99.4376 37.4133 99.8909 36.56C100.371 35.68 100.611 34.6933 100.611 33.6L101.131 38.48C100.464 39.9733 99.4643 41.1733 98.1309 42.08C96.8243 42.96 95.2776 43.4 93.4909 43.4ZM100.771 43V38.2H100.611V22.6H105.691V43H100.771ZM111.272 43V14.2H115.432V43H111.272ZM129.952 43.4C127.578 43.4 125.832 42.8533 124.712 41.76C123.618 40.64 123.072 39 123.072 36.84V17.92L127.192 16.36V36.88C127.192 37.9467 127.472 38.7333 128.032 39.24C128.592 39.7467 129.498 40 130.752 40C131.232 40 131.658 39.96 132.032 39.88C132.405 39.8 132.725 39.7067 132.992 39.6V42.96C132.698 43.0933 132.285 43.2 131.752 43.28C131.218 43.36 130.618 43.4 129.952 43.4ZM118.992 25.92V22.6H132.992V25.92H118.992ZM143.856 43.4C142.522 43.4 141.336 43.1333 140.296 42.6C139.256 42.04 138.442 41.2667 137.856 40.28C137.269 39.2667 136.976 38.1067 136.976 36.8V22.6H140.176V35.96C140.176 37.5067 140.549 38.6667 141.296 39.44C142.069 40.2133 143.162 40.6 144.576 40.6C145.856 40.6 146.989 40.3067 147.976 39.72C148.962 39.1333 149.736 38.32 150.296 37.28C150.882 36.2133 151.176 35 151.176 33.64L151.696 38.48C151.029 40 149.989 41.2 148.576 42.08C147.162 42.96 145.589 43.4 143.856 43.4ZM151.376 43V38.2H151.176V22.6H154.376V43H151.376ZM160.77 43V22.6H163.77V27.8H163.97V43H160.77ZM163.97 32.36L163.45 27.52C163.93 25.7867 164.784 24.4667 166.01 23.56C167.237 22.6533 168.65 22.2 170.25 22.2C170.917 22.2 171.37 22.2533 171.61 22.36V25.44C171.477 25.3867 171.29 25.36 171.05 25.36C170.81 25.3333 170.517 25.32 170.17 25.32C168.144 25.32 166.597 25.9333 165.53 27.16C164.49 28.36 163.97 30.0933 163.97 32.36ZM183.427 43.4C181.481 43.4 179.761 42.9467 178.267 42.04C176.774 41.1067 175.601 39.84 174.747 38.24C173.894 36.64 173.467 34.8 173.467 32.72C173.467 30.64 173.881 28.8133 174.707 27.24C175.561 25.64 176.747 24.4 178.267 23.52C179.787 22.64 181.534 22.2 183.507 22.2C185.401 22.2 187.041 22.6133 188.427 23.44C189.841 24.2667 190.921 25.4267 191.667 26.92C192.441 28.4133 192.827 30.1733 192.827 32.2C192.827 32.4667 192.814 32.72 192.787 32.96C192.787 33.2 192.761 33.4667 192.707 33.76H175.867V31.08H190.747L189.707 32.56C189.707 30.1067 189.161 28.2267 188.067 26.92C187.001 25.5867 185.481 24.92 183.507 24.92C181.481 24.92 179.841 25.6267 178.587 27.04C177.361 28.4267 176.747 30.3067 176.747 32.68C176.747 35.1067 177.361 37.0533 178.587 38.52C179.841 39.96 181.507 40.68 183.587 40.68C184.894 40.68 186.041 40.4 187.027 39.84C188.014 39.2533 188.734 38.4267 189.187 37.36H192.227C191.561 39.2267 190.441 40.7067 188.867 41.8C187.321 42.8667 185.507 43.4 183.427 43.4Z" fill="white"/>
<rect x="150.805" y="21.8571" width="4.42857" height="22.1429" fill="white"/>
<circle cx="153.019" cy="16.0195" r="1.00649" fill="white"/>
<path d="M156.039 16.0195C156.039 15.3472 155.815 14.6941 155.401 14.1637C154.988 13.6334 154.41 13.2561 153.758 13.0917C153.106 12.9273 152.418 12.9851 151.803 13.256C151.187 13.527 150.68 13.9955 150.361 14.5874C150.042 15.1793 149.93 15.8606 150.042 16.5235C150.155 17.1864 150.485 17.7928 150.981 18.2468C151.477 18.7007 152.11 18.9762 152.78 19.0295C153.45 19.0828 154.119 18.9109 154.681 18.541L154.017 17.534C153.68 17.7561 153.278 17.8593 152.876 17.8273C152.473 17.7953 152.093 17.6299 151.795 17.3572C151.497 17.0846 151.299 16.7203 151.231 16.3222C151.164 15.9241 151.231 15.5148 151.423 15.1593C151.614 14.8039 151.919 14.5224 152.289 14.3597C152.658 14.197 153.071 14.1622 153.463 14.261C153.855 14.3598 154.202 14.5864 154.45 14.9049C154.698 15.2234 154.833 15.6157 154.833 16.0195H156.039Z" fill="white"/>
<ellipse cx="43.8043" cy="30.9572" rx="2.02797" ry="1.98443" fill="white"/>
<path d="M48.0859 20.5252C46.1623 23.7854 41.4461 23.7854 39.5225 20.5252L35.934 14.4432C33.9787 11.1292 36.3678 6.94553 40.2158 6.94553L47.3926 6.94553C51.2405 6.94553 53.6297 11.1292 51.6743 14.4432L48.0859 20.5252Z" fill="white"/>
<rect width="16.1351" height="58.2745" rx="8.06753" transform="matrix(0.866855 -0.49856 0.514905 0.857247 0 8.0443)" fill="white"/>
</svg>
