<svg width="186" height="55" viewBox="0 0 186 55" fill="none" xmlns="http://www.w3.org/2000/svg">
<path d="M68.36 41L60.2 20.6H65.64L72.16 39.36H69.48L76 20.6H81.28L73.08 41H68.36ZM89.6909 41.4C88.2776 41.4 87.0509 41.1067 86.0109 40.52C84.9976 39.9067 84.2109 39.08 83.6509 38.04C83.1176 37 82.8509 35.8267 82.8509 34.52V20.6H87.8909V33.48C87.8909 34.7333 88.1976 35.68 88.8109 36.32C89.4509 36.96 90.3443 37.28 91.4909 37.28C92.5309 37.28 93.4376 37.04 94.2109 36.56C95.0109 36.08 95.6376 35.4133 96.0909 34.56C96.5709 33.68 96.8109 32.6933 96.8109 31.6L97.3309 36.48C96.6643 37.9733 95.6643 39.1733 94.3309 40.08C93.0243 40.96 91.4776 41.4 89.6909 41.4ZM96.9709 41V36.2H96.8109V20.6H101.891V41H96.9709ZM106.432 41V12.2H111.472V41H106.432ZM125.182 41.4C122.676 41.4 120.822 40.8133 119.622 39.64C118.449 38.44 117.862 36.6533 117.862 34.28V15.96L122.942 14.08V34.4C122.942 35.3867 123.209 36.12 123.742 36.6C124.276 37.08 125.116 37.32 126.262 37.32C126.716 37.32 127.116 37.2933 127.462 37.24C127.836 37.16 128.182 37.0667 128.502 36.96V40.88C128.182 41.04 127.729 41.16 127.142 41.24C126.556 41.3467 125.902 41.4 125.182 41.4ZM113.942 24.56V20.6H128.502V24.56H113.942ZM138.632 41.4C137.299 41.4 136.112 41.1333 135.072 40.6C134.032 40.04 133.219 39.2667 132.632 38.28C132.046 37.2667 131.752 36.1067 131.752 34.8V20.6H134.952V33.96C134.952 35.5067 135.326 36.6667 136.072 37.44C136.846 38.2133 137.939 38.6 139.352 38.6C140.632 38.6 141.766 38.3067 142.752 37.72C143.739 37.1333 144.512 36.32 145.072 35.28C145.659 34.2133 145.952 33 145.952 31.64L146.472 36.48C145.806 38 144.766 39.2 143.352 40.08C141.939 40.96 140.366 41.4 138.632 41.4ZM146.152 41V36.2H145.952V20.6H149.152V41H146.152ZM154.227 41V20.6H159.147V25.52H159.267V41H154.227ZM159.267 30.36L158.747 25.52C159.227 23.7867 160.04 22.4667 161.187 21.56C162.334 20.6533 163.707 20.2 165.307 20.2C165.867 20.2 166.267 20.2533 166.507 20.36V25.12C166.374 25.0667 166.187 25.04 165.947 25.04C165.707 25.0133 165.414 25 165.067 25C163.12 25 161.667 25.4267 160.707 26.28C159.747 27.1333 159.267 28.4933 159.267 30.36Z" fill="white"/>
<rect x="146" y="20" width="4.2" height="21" fill="white"/>
<circle cx="175.5" cy="31.5" r="3.5" fill="white"/>
<path d="M186 31.5C186 29.1621 185.22 26.8911 183.783 25.0468C182.346 23.2026 180.335 21.8906 178.068 21.3189C175.801 20.7471 173.408 20.9482 171.269 21.8904C169.129 22.8325 167.365 24.4618 166.256 26.52C165.147 28.5783 164.757 30.9477 165.147 33.2527C165.538 35.5578 166.686 37.6667 168.411 39.2453C170.135 40.8238 172.337 41.7816 174.668 41.967C176.998 42.1523 179.324 41.5545 181.276 40.2684L178.969 36.7665C177.797 37.5389 176.4 37.8979 175 37.7866C173.6 37.6753 172.278 37.1 171.242 36.1519C170.206 35.2039 169.516 33.9372 169.282 32.5527C169.048 31.1683 169.282 29.7452 169.948 28.509C170.614 27.2728 171.673 26.2942 172.959 25.7283C174.244 25.1624 175.681 25.0416 177.042 25.385C178.404 25.7285 179.612 26.5164 180.475 27.6241C181.338 28.7318 181.806 30.0958 181.806 31.5H186Z" fill="white"/>
<ellipse cx="41.5383" cy="29.3559" rx="1.92308" ry="1.88179" fill="white"/>
<path d="M44.2453 21.7574C43.0292 23.8184 40.0477 23.8184 38.8316 21.7574L32.6771 11.3262C31.4409 9.2311 32.9513 6.58627 35.3839 6.58627L47.693 6.58627C50.1256 6.58627 51.636 9.2311 50.3999 11.3262L44.2453 21.7574Z" fill="white"/>
<rect width="15.3005" height="55.2603" rx="7.65025" transform="matrix(0.866855 -0.49856 0.514905 0.857247 0 7.6282)" fill="white"/>
</svg>
