<svg width="452" height="122" viewBox="0 0 452 122" fill="none" xmlns="http://www.w3.org/2000/svg">
<path d="M143.9 97L123.5 46H137.1L153.4 92.9H146.7L163 46H176.2L155.7 97H143.9ZM199.227 98C195.694 98 192.627 97.2667 190.027 95.8C187.494 94.2667 185.527 92.2 184.127 89.6C182.794 87 182.127 84.0667 182.127 80.8V46H194.727V78.2C194.727 81.3333 195.494 83.7 197.027 85.3C198.627 86.9 200.861 87.7 203.727 87.7C206.327 87.7 208.594 87.1 210.527 85.9C212.527 84.7 214.094 83.0333 215.227 80.9C216.427 78.7 217.027 76.2333 217.027 73.5L218.327 85.7C216.661 89.4333 214.161 92.4333 210.827 94.7C207.561 96.9 203.694 98 199.227 98ZM217.427 97V85H217.027V46H229.727V97H217.427ZM243.679 97V25H254.079V97H243.679ZM290.379 98C284.446 98 280.079 96.6333 277.279 93.9C274.546 91.1 273.179 87 273.179 81.6V34.3L283.479 30.4V81.7C283.479 84.3667 284.179 86.3333 285.579 87.6C286.979 88.8667 289.246 89.5 292.379 89.5C293.579 89.5 294.646 89.4 295.579 89.2C296.512 89 297.312 88.7667 297.979 88.5V96.9C297.246 97.2333 296.212 97.5 294.879 97.7C293.546 97.9 292.046 98 290.379 98ZM262.979 54.3V46H297.979V54.3H262.979ZM325.139 98C321.806 98 318.839 97.3333 316.239 96C313.639 94.6 311.606 92.6667 310.139 90.2C308.672 87.6667 307.939 84.7667 307.939 81.5V46H315.939V79.4C315.939 83.2667 316.872 86.1667 318.739 88.1C320.672 90.0333 323.406 91 326.939 91C330.139 91 332.972 90.2667 335.439 88.8C337.906 87.3333 339.839 85.3 341.239 82.7C342.706 80.0333 343.439 77 343.439 73.6L344.739 85.7C343.072 89.5 340.472 92.5 336.939 94.7C333.406 96.9 329.472 98 325.139 98ZM343.939 97V85H343.439V46H351.439V97H343.939ZM367.426 97V46H374.926V59H375.426V97H367.426ZM375.426 70.4L374.126 58.3C375.326 53.9667 377.459 50.6667 380.526 48.4C383.592 46.1333 387.126 45 391.126 45C392.792 45 393.926 45.1333 394.526 45.4V53.1C394.192 52.9667 393.726 52.9 393.126 52.9C392.526 52.8333 391.792 52.8 390.926 52.8C385.859 52.8 381.992 54.3333 379.326 57.4C376.726 60.4 375.426 64.7333 375.426 70.4ZM424.068 98C419.201 98 414.901 96.8667 411.168 94.6C407.435 92.2667 404.501 89.1 402.368 85.1C400.235 81.1 399.168 76.5 399.168 71.3C399.168 66.1 400.201 61.5333 402.268 57.6C404.401 53.6 407.368 50.5 411.168 48.3C414.968 46.1 419.335 45 424.268 45C429.001 45 433.101 46.0333 436.568 48.1C440.101 50.1667 442.801 53.0667 444.668 56.8C446.601 60.5333 447.568 64.9333 447.568 70C447.568 70.6667 447.535 71.3 447.468 71.9C447.468 72.5 447.401 73.1667 447.268 73.9H405.168V67.2H442.368L439.768 70.9C439.768 64.7667 438.401 60.0667 435.668 56.8C433.001 53.4667 429.201 51.8 424.268 51.8C419.201 51.8 415.101 53.5667 411.968 57.1C408.901 60.5667 407.368 65.2667 407.368 71.2C407.368 77.2667 408.901 82.1333 411.968 85.8C415.101 89.4 419.268 91.2 424.468 91.2C427.735 91.2 430.601 90.5 433.068 89.1C435.535 87.6333 437.335 85.5667 438.468 82.9H446.068C444.401 87.5667 441.601 91.2667 437.668 94C433.801 96.6667 429.268 98 424.068 98Z" fill="black"/>
<rect x="340" y="42" width="11" height="55" fill="black"/>
<circle cx="345.5" cy="27.5" r="2.5" fill="black"/>
<path d="M353 27.5C353 25.8301 352.443 24.2079 351.416 22.8906C350.39 21.5733 348.953 20.6362 347.334 20.2278C345.715 19.8193 344.006 19.963 342.478 20.636C340.949 21.309 339.689 22.4727 338.897 23.9429C338.105 25.413 337.826 27.1055 338.105 28.752C338.384 30.3985 339.204 31.9048 340.436 33.0323C341.668 34.1598 343.241 34.844 344.905 34.9764C346.57 35.1088 348.231 34.6818 349.626 33.7632L347.978 31.2618C347.14 31.8135 346.143 32.07 345.143 31.9904C344.143 31.9109 343.198 31.5 342.459 30.8228C341.719 30.1456 341.226 29.2409 341.059 28.252C340.891 27.263 341.059 26.2465 341.534 25.3635C342.01 24.4805 342.767 23.7816 343.685 23.3774C344.603 22.9732 345.629 22.8869 346.602 23.1322C347.574 23.3775 348.437 23.9403 349.053 24.7315C349.67 25.5227 350.005 26.497 350.005 27.5H353Z" fill="black"/>
<ellipse cx="75.5246" cy="66.3744" rx="3.4965" ry="3.42144" fill="#2F66FF"/>
<path d="M82.9067 48.3882C79.5902 54.0093 71.4587 54.0092 68.1422 48.3882L61.9552 37.9021C58.5839 32.1882 62.7032 24.975 69.3375 24.975L81.7114 24.975C88.3458 24.975 92.465 32.1882 89.0937 37.9021L82.9067 48.3882Z" fill="#2F66FF"/>
<rect width="27.8191" height="100.473" rx="13.9095" transform="matrix(0.866855 -0.49856 0.514905 0.857247 0 26.8694)" fill="#2F66FF"/>
</svg>
