<svg width="54" height="54" viewBox="0 0 54 54" fill="none" xmlns="http://www.w3.org/2000/svg">
<path d="M50.625 35.4375C51.557 35.4375 52.3125 34.682 52.3125 33.75C52.3125 32.818 51.557 32.0625 50.625 32.0625C49.693 32.0625 48.9375 32.818 48.9375 33.75C48.9375 34.682 49.693 35.4375 50.625 35.4375Z" fill="white"/>
<path d="M3.375 35.4375C4.30698 35.4375 5.0625 34.682 5.0625 33.75C5.0625 32.818 4.30698 32.0625 3.375 32.0625C2.44302 32.0625 1.6875 32.818 1.6875 33.75C1.6875 34.682 2.44302 35.4375 3.375 35.4375Z" fill="white"/>
<path d="M40.499 43.8749C38.7229 43.8726 36.9787 43.4031 35.4415 42.5137C33.9042 41.6242 32.628 40.346 31.7408 38.8074L28.8164 40.4949C31.1502 44.528 35.504 47.2499 40.499 47.2499C45.494 47.2499 49.8477 44.5297 52.1815 40.4949L49.2571 38.8074C48.37 40.346 47.0937 41.6242 45.5565 42.5137C44.0192 43.4031 42.275 43.8726 40.499 43.8749Z" fill="white"/>
<path d="M40.501 23.625C42.2779 23.6282 44.0228 24.0973 45.5617 24.9856C47.1006 25.874 48.3796 27.1504 49.271 28.6875L52.1937 26.9983C49.7856 22.8352 45.3053 20.25 40.501 20.25C35.6967 20.25 31.2164 22.8352 28.7931 27.0253L22.271 38.8125C20.4653 41.9344 17.1055 43.875 13.501 43.875C9.89652 43.875 6.5367 41.9344 4.73108 38.8125L1.80664 40.5017C4.21639 44.6647 8.6967 47.25 13.501 47.25C18.3053 47.25 22.7856 44.6648 25.2089 40.4747L31.7311 28.6875C33.5367 25.5656 36.8965 23.625 40.501 23.625Z" fill="white"/>
<path d="M13.499 23.625C15.275 23.6273 17.0192 24.0968 18.5565 24.9863C20.0937 25.8758 21.37 27.1539 22.2571 28.6926L25.1815 27.0051C22.8477 22.9719 18.494 20.25 13.499 20.25C8.50397 20.25 4.15022 22.9719 1.81641 27.0051L4.74084 28.6926C5.62798 27.1539 6.90422 25.8758 8.44148 24.9863C9.97874 24.0968 11.7229 23.6273 13.499 23.625ZM26.999 10.125C29.2149 10.1236 31.4093 10.56 33.4562 11.4091C35.503 12.2581 37.3619 13.5032 38.9262 15.0727L41.309 12.69C37.6437 9.02137 32.5812 6.75 26.999 6.75C21.4167 6.75 16.3542 9.02137 12.6873 12.6883L15.0717 15.0727C16.636 13.5032 18.4949 12.2581 20.5418 11.4091C22.5886 10.56 24.783 10.1236 26.999 10.125Z" fill="white"/>
</svg>
