<svg width="32" height="32" viewBox="0 0 32 32" fill="none" xmlns="http://www.w3.org/2000/svg">
<path opacity="0.4" d="M24.6201 12.45C23.5701 7.83 19.5401 5.75 16.0001 5.75C16.0001 5.75 16.0001 5.75 15.9901 5.75C12.4601 5.75 8.4201 7.82 7.3701 12.44C6.2001 17.6 9.3601 21.97 12.2201 24.72C13.2801 25.74 14.6401 26.25 16.0001 26.25C17.3601 26.25 18.7201 25.74 19.7701 24.72C22.6301 21.97 25.7901 17.61 24.6201 12.45Z" fill="#B4C4F7"/>
<path d="M16.0001 17.4602C17.7398 17.4602 19.1501 16.0499 19.1501 14.3102C19.1501 12.5705 17.7398 11.1602 16.0001 11.1602C14.2604 11.1602 12.8501 12.5705 12.8501 14.3102C12.8501 16.0499 14.2604 17.4602 16.0001 17.4602Z" fill="#0E42E4"/>
</svg>
